<svg width="33" height="32" viewBox="0 0 33 32" fill="none" xmlns="http://www.w3.org/2000/svg">
<mask id="mask0_149_274" style="mask-type:alpha" maskUnits="userSpaceOnUse" x="0" y="0" width="33" height="32">
<rect x="0.5" width="32" height="32" fill="#D9D9D9"/>
</mask>
<g mask="url(#mask0_149_274)">
<path d="M15.1666 15.7332V19.9998C15.1666 20.3776 15.2944 20.6943 15.55 20.9498C15.8055 21.2054 16.1222 21.3332 16.5 21.3332C16.8777 21.3332 17.1944 21.2054 17.45 20.9498C17.7055 20.6943 17.8333 20.3776 17.8333 19.9998V15.7332L19.0333 16.9332C19.2777 17.1776 19.5888 17.2998 19.9666 17.2998C20.3444 17.2998 20.6555 17.1776 20.9 16.9332C21.1444 16.6887 21.2666 16.3776 21.2666 15.9998C21.2666 15.6221 21.1444 15.3109 20.9 15.0665L17.4333 11.5998C17.1666 11.3332 16.8555 11.1998 16.5 11.1998C16.1444 11.1998 15.8333 11.3332 15.5666 11.5998L12.1 15.0665C11.8555 15.3109 11.7333 15.6221 11.7333 15.9998C11.7333 16.3776 11.8555 16.6887 12.1 16.9332C12.3444 17.1776 12.6555 17.2998 13.0333 17.2998C13.4111 17.2998 13.7222 17.1776 13.9666 16.9332L15.1666 15.7332ZM16.5 29.3332C14.6555 29.3332 12.9222 28.9832 11.3 28.2832C9.67774 27.5832 8.26663 26.6332 7.06663 25.4332C5.86663 24.2332 4.91663 22.8221 4.21663 21.1998C3.51663 19.5776 3.16663 17.8443 3.16663 15.9998C3.16663 14.1554 3.51663 12.4221 4.21663 10.7998C4.91663 9.17761 5.86663 7.7665 7.06663 6.5665C8.26663 5.3665 9.67774 4.4165 11.3 3.7165C12.9222 3.0165 14.6555 2.6665 16.5 2.6665C18.3444 2.6665 20.0777 3.0165 21.7 3.7165C23.3222 4.4165 24.7333 5.3665 25.9333 6.5665C27.1333 7.7665 28.0833 9.17761 28.7833 10.7998C29.4833 12.4221 29.8333 14.1554 29.8333 15.9998C29.8333 17.8443 29.4833 19.5776 28.7833 21.1998C28.0833 22.8221 27.1333 24.2332 25.9333 25.4332C24.7333 26.6332 23.3222 27.5832 21.7 28.2832C20.0777 28.9832 18.3444 29.3332 16.5 29.3332Z" fill="#11FFD4"/>
<path d="M15.1666 15.7332V19.9998C15.1666 20.3776 15.2944 20.6943 15.55 20.9498C15.8055 21.2054 16.1222 21.3332 16.5 21.3332C16.8777 21.3332 17.1944 21.2054 17.45 20.9498C17.7055 20.6943 17.8333 20.3776 17.8333 19.9998V15.7332L19.0333 16.9332C19.2777 17.1776 19.5888 17.2998 19.9666 17.2998C20.3444 17.2998 20.6555 17.1776 20.9 16.9332C21.1444 16.6887 21.2666 16.3776 21.2666 15.9998C21.2666 15.6221 21.1444 15.3109 20.9 15.0665L17.4333 11.5998C17.1666 11.3332 16.8555 11.1998 16.5 11.1998C16.1444 11.1998 15.8333 11.3332 15.5666 11.5998L12.1 15.0665C11.8555 15.3109 11.7333 15.6221 11.7333 15.9998C11.7333 16.3776 11.8555 16.6887 12.1 16.9332C12.3444 17.1776 12.6555 17.2998 13.0333 17.2998C13.4111 17.2998 13.7222 17.1776 13.9666 16.9332L15.1666 15.7332Z" fill="#FF00B8"/>
</g>
</svg>
