<svg width="33" height="32" viewBox="0 0 33 32" fill="none" xmlns="http://www.w3.org/2000/svg">
<mask id="mask0_149_216" style="mask-type:alpha" maskUnits="userSpaceOnUse" x="0" y="0" width="33" height="32">
<rect x="0.5" width="32" height="32" fill="#D9D9D9"/>
</mask>
<g mask="url(#mask0_149_216)">
<path d="M15.1667 15.7332V19.9998C15.1667 20.3776 15.2945 20.6943 15.55 20.9498C15.8056 21.2054 16.1222 21.3332 16.5 21.3332C16.8778 21.3332 17.1945 21.2054 17.45 20.9498C17.7056 20.6943 17.8334 20.3776 17.8334 19.9998V15.7332L19.0334 16.9332C19.2778 17.1776 19.5889 17.2998 19.9667 17.2998C20.3445 17.2998 20.6556 17.1776 20.9 16.9332C21.1445 16.6887 21.2667 16.3776 21.2667 15.9998C21.2667 15.6221 21.1445 15.3109 20.9 15.0665L17.4334 11.5998C17.1667 11.3332 16.8556 11.1998 16.5 11.1998C16.1445 11.1998 15.8334 11.3332 15.5667 11.5998L12.1 15.0665C11.8556 15.3109 11.7334 15.6221 11.7334 15.9998C11.7334 16.3776 11.8556 16.6887 12.1 16.9332C12.3445 17.1776 12.6556 17.2998 13.0334 17.2998C13.4111 17.2998 13.7222 17.1776 13.9667 16.9332L15.1667 15.7332ZM16.5 29.3332C14.6556 29.3332 12.9222 28.9832 11.3 28.2832C9.6778 27.5832 8.26669 26.6332 7.06669 25.4332C5.86669 24.2332 4.91669 22.8221 4.21669 21.1998C3.51669 19.5776 3.16669 17.8443 3.16669 15.9998C3.16669 14.1554 3.51669 12.4221 4.21669 10.7998C4.91669 9.17761 5.86669 7.7665 7.06669 6.5665C8.26669 5.3665 9.6778 4.4165 11.3 3.7165C12.9222 3.0165 14.6556 2.6665 16.5 2.6665C18.3445 2.6665 20.0778 3.0165 21.7 3.7165C23.3222 4.4165 24.7334 5.3665 25.9334 6.5665C27.1334 7.7665 28.0834 9.17761 28.7834 10.7998C29.4834 12.4221 29.8334 14.1554 29.8334 15.9998C29.8334 17.8443 29.4834 19.5776 28.7834 21.1998C28.0834 22.8221 27.1334 24.2332 25.9334 25.4332C24.7334 26.6332 23.3222 27.5832 21.7 28.2832C20.0778 28.9832 18.3445 29.3332 16.5 29.3332Z" fill="white"/>
<path d="M15.1667 15.7332V19.9998C15.1667 20.3776 15.2945 20.6943 15.55 20.9498C15.8056 21.2054 16.1222 21.3332 16.5 21.3332C16.8778 21.3332 17.1945 21.2054 17.45 20.9498C17.7056 20.6943 17.8334 20.3776 17.8334 19.9998V15.7332L19.0334 16.9332C19.2778 17.1776 19.5889 17.2998 19.9667 17.2998C20.3445 17.2998 20.6556 17.1776 20.9 16.9332C21.1445 16.6887 21.2667 16.3776 21.2667 15.9998C21.2667 15.6221 21.1445 15.3109 20.9 15.0665L17.4334 11.5998C17.1667 11.3332 16.8556 11.1998 16.5 11.1998C16.1445 11.1998 15.8334 11.3332 15.5667 11.5998L12.1 15.0665C11.8556 15.3109 11.7334 15.6221 11.7334 15.9998C11.7334 16.3776 11.8556 16.6887 12.1 16.9332C12.3445 17.1776 12.6556 17.2998 13.0334 17.2998C13.4111 17.2998 13.7222 17.1776 13.9667 16.9332L15.1667 15.7332Z" fill="#222222"/>
</g>
</svg>
