<svg width="302" height="24" viewBox="0 0 302 24" fill="none" xmlns="http://www.w3.org/2000/svg">
<path d="M0 20V-4.76837e-07H4V16H14V20H0ZM16 22V10H10V6H16V-4.76837e-07H20V22H16ZM24 12V-4.76837e-07H36V12H24ZM40 14V-4.76837e-07H44V4H46V8H44V14H40ZM26 22V14H30V18H44V22H26ZM28 8H32V4H28V8ZM48 20V16H70V20H48ZM66 -4.76837e-07V2H68V10H66V12H52V10H50V2H52V-4.76837e-07H66ZM64 8V4H54V8H64ZM72 22V-4.76837e-07H76V22H72ZM88.0078 10V8H110.008V10H88.0078ZM106.008 2V4H108.008V6H90.0078V4H92.0078V2H90.0078V-4.76837e-07H108.008V2H106.008ZM96.0078 2V4H102.008V2H96.0078ZM90.0078 22V16H98.0078V18H108.008V22H90.0078ZM90.0078 14V12H108.008V16H98.0078V14H90.0078ZM116.976 10.72H130.584V13.552H116.976V10.72ZM115.2 2.992H132.288V14.92H129.216V5.944H115.2V2.992ZM115.488 10.72H118.488V19.336C118.488 20.632 118.92 20.848 121.512 20.848C122.712 20.848 127.776 20.848 129.192 20.848C131.616 20.848 131.952 20.248 132.264 16.744C133.032 17.2 134.328 17.704 135.168 17.872C134.664 22.48 133.608 23.704 129.264 23.704C128.184 23.704 122.496 23.704 121.464 23.704C116.952 23.704 115.488 22.84 115.488 19.384V10.72ZM136.008 22V-4.76837e-07H140.008V22H136.008ZM142.008 12V10H164.008V12H142.008ZM144.008 -4.76837e-07H162.008V4H152.008V2H144.008V-4.76837e-07ZM144.008 18H152.008V20H162.008V22H144.008V18ZM144.008 16V14H162.008V18H152.008V16H144.008ZM144.008 8V4H152.008V6H162.008V8H144.008ZM176.016 12V-4.76837e-07H188.016V12H176.016ZM192.016 14V-4.76837e-07H196.016V4H198.016V8H196.016V14H192.016ZM178.016 22V14H182.016V18H196.016V22H178.016ZM180.016 8H184.016V4H180.016V8ZM202.016 -4.76837e-07H220.016V2H206.016V4H220.016V6H202.016V-4.76837e-07ZM200.016 10V8H222.016V10H200.016ZM202.016 22V16H210.016V18H220.016V22H202.016ZM202.016 14V12H220.016V16H210.016V14H202.016ZM224.016 18H226.016V8H228.016V6H238.016V8H240.016V6H242.016V10H240.016V20H238.016V22H228.016V20H226.016V22H224.016V18ZM232.016 18H236.016V14H234.016V16H232.016V18ZM232.016 14V12H234.016V10H230.016V14H232.016ZM245.88 22V16.408L245.04 16.912L243.72 14.608L245.88 13.288V3.76H249.456V11.104L250.272 10.6L251.64 12.904L249.456 14.224V22H245.88ZM267.32 12H257.32V16H267.32V12ZM267.32 8V2H271.32V20H253.32V2H257.32V8H267.32ZM275.32 22V6H279.32V8H281.32V6H285.32V10H281.32V12H279.32V22H275.32ZM285.328 18H289.328V22H285.328V18ZM291.328 18H295.328V22H291.328V18ZM297.328 18H301.328V22H297.328V18Z" fill="white"/>
</svg>
