<svg width="61" height="15" viewBox="0 0 61 15" fill="none" xmlns="http://www.w3.org/2000/svg">
<path d="M0 8.6V0.599999H8V2.2H1.6V3.8H8V5.4H1.6V7H8V8.6H11.2V0.599999H12.8V3.8H14.4V5.4H12.8V11.8H4.8V10.2H1.6V8.6H0ZM12.8 13.4V15H1.6V11.8H4.8V13.4H12.8ZM16 13.4V11.8H19.2V8.6H16V0.599999H24V2.2H17.6V3.8H24V5.4H17.6V7H24V8.6H20.8V11.8H25.6V13.4H16ZM28.8 15H27.2V0.599999H28.8V15ZM32 11.8V8.6H33.6V11.8H32ZM32 5.4V3.8H41.6V5.4H32ZM46.4 7V8.6H44.8V15H43.2V0.599999H44.8V7H46.4ZM38.4 11.8V13.4H33.6V11.8H38.4ZM38.4 7V8.6H33.6V7H38.4ZM38.4 8.6H40V11.8H38.4V8.6ZM38.4 0.599999V2.2H33.6V0.599999H38.4ZM48 13.4V11.8H51.2V13.4H48ZM60.8 15H59.2V0.599999H60.8V15ZM48 2.2V0.599999H56V7H54.4V2.2H48ZM51.2 11.8V10.2H52.8V11.8H51.2ZM52.8 7H54.4V10.2H52.8V7Z" fill="white"/>
</svg>
