<svg width="32" height="32" viewBox="0 0 32 32" fill="none" xmlns="http://www.w3.org/2000/svg">
<path d="M0 16C0 7.16344 7.16344 0 16 0V0C24.8366 0 32 7.16344 32 16V16C32 24.8366 24.8366 32 16 32V32C7.16344 32 0 24.8366 0 16V16Z" fill="#FF00B8"/>
<path d="M8 25V21.7273H24V25H8ZM11.2 18.4545H12.32L18.56 12.0932L17.42 10.9273L11.2 17.3091V18.4545ZM9.6 20.0909V16.6136L18.56 7.47045C18.7067 7.32045 18.8767 7.20455 19.07 7.12273C19.2633 7.04091 19.4667 7 19.68 7C19.8933 7 20.1 7.04091 20.3 7.12273C20.5 7.20455 20.68 7.32727 20.84 7.49091L21.94 8.63636C22.1 8.78636 22.2167 8.96364 22.29 9.16818C22.3633 9.37273 22.4 9.58409 22.4 9.80227C22.4 10.0068 22.3633 10.208 22.29 10.4057C22.2167 10.6034 22.1 10.7841 21.94 10.9477L13 20.0909H9.6Z" fill="white"/>
</svg>
