<svg width="160" height="45" viewBox="0 0 160 45" fill="none" xmlns="http://www.w3.org/2000/svg">
<g filter="url(#filter0_d_164_74)">
<path d="M146.618 23.4319V16.6686H150V31.886H146.618V25.1227H143.237V31.886H139.855V16.6686H143.237V23.4319H146.618Z" fill="#FF00B8"/>
<path d="M146.618 15.9186H145.868V16.6686V22.6819H143.987V16.6686V15.9186H143.237H139.855H139.105V16.6686V31.886V32.636H139.855H143.237H143.987V31.886V25.8727H145.868V31.886V32.636H146.618H150H150.75V31.886V16.6686V15.9186H150H146.618Z" stroke="#11FFD4" stroke-width="1.5"/>
</g>
<g filter="url(#filter1_d_164_74)">
<path d="M121.594 30.1952V28.5043H119.903V18.3594H140.193V20.0502H123.285V28.5043H140.193V30.1952H121.594Z" fill="#FF00B8"/>
<path d="M120.844 30.1952V30.9452H121.594H140.193H140.943V30.1952V28.5043V27.7543H140.193H124.035V20.8002H140.193H140.943V20.0502V18.3594V17.6094H140.193H119.903H119.153V18.3594V28.5043V29.2543H119.903H120.844V30.1952Z" stroke="#11FFD4" stroke-width="1.5"/>
</g>
<g filter="url(#filter2_d_164_74)">
<path d="M107.729 25.1227H104.348V23.4319H107.729V13.2869H111.111V35.2676H107.729V25.1227ZM112.802 13.2869H116.184V35.2676H112.802V13.2869Z" fill="#FF00B8"/>
<path d="M103.598 25.1227V25.8727H104.348H106.979V35.2676V36.0176H107.729H111.111H111.861V35.2676V13.2869V12.5369H111.111H107.729H106.979V13.2869V22.6819H104.348H103.598V23.4319V25.1227ZM112.802 12.5369H112.052V13.2869V35.2676V36.0176H112.802H116.184H116.934V35.2676V13.2869V12.5369H116.184H112.802Z" stroke="#11FFD4" stroke-width="1.5"/>
</g>
<g filter="url(#filter3_d_164_74)">
<path d="M99.8029 13.03C99.8029 14.0309 100.614 14.8155 101.588 14.8155C102.562 14.8155 103.374 14.0309 103.374 13.03C103.374 12.056 102.562 11.2444 101.588 11.2444C100.614 11.2444 99.8029 12.056 99.8029 13.03ZM98.5584 13.03C98.5584 11.3527 99.9111 10 101.588 10C103.266 10 104.618 11.3527 104.618 13.03C104.618 14.7072 103.266 16.0599 101.588 16.0599C99.9111 16.0599 98.5584 14.7072 98.5584 13.03ZM84.5179 23.77C85.7082 20.9565 86.8174 16.8444 87.1961 13.7333L89.6039 14.2203C89.4145 14.8155 89.2251 15.6271 89.0898 16.1952C88.7382 17.8725 87.7913 21.8763 86.6551 24.6628C85.6541 27.1246 84.1662 29.9111 82.6512 32.1024L80.3517 31.1285C82.056 28.856 83.5981 26.0155 84.5179 23.77ZM97.8551 22.742C96.7729 19.9556 95.0956 16.1952 93.9324 14.1662L96.1237 13.4357C97.1787 15.4106 98.9101 19.144 100.073 21.9845C101.156 24.6628 102.589 28.8019 103.32 31.2638L100.912 32.0213C100.236 29.2889 98.9642 25.6097 97.8551 22.742Z" fill="#FF00B8"/>
<path d="M92.826 13.7444L93.6952 13.4547L95.8865 12.7242L96.4869 12.5241L96.7852 13.0823C97.8551 15.085 99.5971 18.8425 100.767 21.7003L100.769 21.7036C101.86 24.4046 103.302 28.5663 104.039 31.0504L104.249 31.7578L103.545 31.9792L101.137 32.7367L100.376 32.9762L100.184 32.2015C99.5188 29.5141 98.2604 25.869 97.1559 23.0135L92.826 13.7444ZM92.826 13.7444L93.2817 14.5392M92.826 13.7444L93.2817 14.5392M93.2817 14.5392C94.4178 16.5207 96.0791 20.2408 97.1556 23.0126L93.2817 14.5392ZM83.8271 23.4778L83.8271 23.4778L83.8238 23.4857C82.9259 25.6778 81.4143 28.4617 79.7517 30.6785L79.1766 31.4453L80.0592 31.8191L82.3587 32.793L82.9209 33.0311L83.2681 32.5289C84.8157 30.2905 86.3292 27.4555 87.3497 24.9456C88.5106 22.0984 89.467 18.0493 89.8218 16.3591C89.8298 16.3254 89.838 16.291 89.8463 16.2561C89.9807 15.6905 90.1511 14.9741 90.3186 14.4477L90.5721 13.6509L89.7525 13.4852L87.3448 12.9982L86.5497 12.8374L86.4516 13.6427C86.0814 16.6836 84.9906 20.7279 83.8271 23.4778ZM101.588 14.0655C101.021 14.0655 100.553 13.6093 100.553 13.03C100.553 12.4703 101.029 11.9944 101.588 11.9944C102.148 11.9944 102.624 12.4703 102.624 13.03C102.624 13.6093 102.156 14.0655 101.588 14.0655ZM101.588 9.25C99.4969 9.25 97.8084 10.9384 97.8084 13.03C97.8084 15.1215 99.4969 16.8099 101.588 16.8099C103.68 16.8099 105.368 15.1215 105.368 13.03C105.368 10.9384 103.68 9.25 101.588 9.25Z" stroke="#11FFD4" stroke-width="1.5"/>
</g>
<g filter="url(#filter4_d_164_74)">
<path d="M59.372 25.1227V23.4319H57.6812V18.3594H59.372V16.6686H61.0628V14.9778H74.5894V16.6686H76.2802V18.3594H77.971V23.4319H76.2802V25.1227H74.5894V26.8135H69.5169V31.886H79.6619V33.5768H55.9904V31.886H66.1353V26.8135H61.0628V25.1227H59.372ZM61.0628 18.3594V23.4319H62.7536V25.1227H72.8986V23.4319H74.5894V18.3594H72.8986V16.6686H62.7536V18.3594H61.0628Z" fill="#FF00B8"/>
<path d="M58.622 25.1227V25.8727H59.372H60.3128V26.8135V27.5635H61.0628H65.3853V31.136H55.9904H55.2404V31.886V33.5768V34.3268H55.9904H79.6619H80.4119V33.5768V31.886V31.136H79.6619H70.2669V27.5635H74.5894H75.3394V26.8135V25.8727H76.2802H77.0302V25.1227V24.1819H77.971H78.721V23.4319V18.3594V17.6094H77.971H77.0302V16.6686V15.9186H76.2802H75.3394V14.9778V14.2278H74.5894H61.0628H60.3128V14.9778V15.9186H59.372H58.622V16.6686V17.6094H57.6812H56.9312V18.3594V23.4319V24.1819H57.6812H58.622V25.1227ZM63.5036 23.4319V22.6819H62.7536H61.8128V19.1094H62.7536H63.5036V18.3594V17.4186H72.1486V18.3594V19.1094H72.8986H73.8394V22.6819H72.8986H72.1486V23.4319V24.3727H63.5036V23.4319Z" stroke="#11FFD4" stroke-width="1.5"/>
</g>
<g filter="url(#filter5_d_164_74)">
<path d="M43.4783 23.4319H40.0966V25.1227H36.715V23.4319H35.0242V25.1227H31.6425V23.4319H33.3333V21.741H35.0242V14.9778H31.6425V13.2869H46.8599V14.9778H43.4783V21.741H45.1691V23.4319H46.8599V25.1227H43.4783V23.4319ZM53.6232 25.1227H50.2415V20.0502H45.1691V18.3594H50.2415V13.2869H53.6232V25.1227ZM40.0966 14.9778H38.4058V21.741H40.0966V14.9778ZM53.6232 33.5768H51.9324V35.2676H35.0242V33.5768H33.3333V26.8135H53.6232V33.5768ZM50.2415 28.5043H36.715V33.5768H50.2415V28.5043Z" fill="#FF00B8"/>
<path d="M40.0966 25.8727H40.8466V25.1227V24.1819H42.7283V25.1227V25.8727H43.4783H46.8599H47.6099V25.1227V23.4319V22.6819H46.8599H45.9191V21.741V20.991H45.1691H44.2283V15.7278H46.8599H47.6099V14.9778V13.2869V12.5369H46.8599H31.6425H30.8925V13.2869V14.9778V15.7278H31.6425H34.2742V20.991H33.3333H32.5833V21.741V22.6819H31.6425H30.8925V23.4319V25.1227V25.8727H31.6425H35.0242H35.7742V25.1227V24.1819H35.965V25.1227V25.8727H36.715H40.0966ZM53.6232 25.8727H54.3732V25.1227V13.2869V12.5369H53.6232H50.2415H49.4915V13.2869V17.6094H45.1691H44.4191V18.3594V20.0502V20.8002H45.1691H49.4915V25.1227V25.8727H50.2415H53.6232ZM53.6232 34.3268H54.3732V33.5768V26.8135V26.0635H53.6232H33.3333H32.5833V26.8135V33.5768V34.3268H33.3333H34.2742V35.2676V36.0176H35.0242H51.9324H52.6824V35.2676V34.3268H53.6232ZM39.1558 20.991V15.7278H39.3466V20.991H39.1558ZM37.465 32.8268V29.2543H49.4915V32.8268H37.465Z" stroke="#11FFD4" stroke-width="1.5"/>
</g>
<g filter="url(#filter6_d_164_74)">
<path d="M30.9662 30.1952V31.886H20.8213V30.1952H24.2029V18.3594H20.8213V16.6686H27.5846V30.1952H30.9662Z" fill="#FF00B8"/>
<path d="M31.7162 30.1952V29.4452H30.9662H28.3346V16.6686V15.9186H27.5846H20.8213H20.0713V16.6686V18.3594V19.1094H20.8213H23.4529V29.4452H20.8213H20.0713V30.1952V31.886V32.636H20.8213H30.9662H31.7162V31.886V30.1952Z" stroke="#11FFD4" stroke-width="1.5"/>
</g>
<g filter="url(#filter7_d_164_74)">
<path d="M18.4541 20.0502V21.7411H13.3816V20.0502H18.4541ZM13.3816 21.7411V23.4319H11.6908V21.7411H13.3816ZM20.1449 23.4319H18.4541V21.7411H20.1449V23.4319ZM10 23.4319H11.6908V28.5044H10V23.4319ZM20.1449 23.4319H21.8357V28.5044H20.1449V23.4319ZM11.6908 28.5044H13.3816V30.1952H11.6908V28.5044ZM18.4541 30.1952V28.5044H20.1449V30.1952H18.4541ZM13.3816 31.886V30.1952H18.4541V31.886H13.3816Z" fill="#FF00B8"/>
<path d="M19.2041 20.0502V19.3002H18.4541H13.3816H12.6316V20.0502V20.9911H11.6908H10.9408V21.7411V22.6819H10H9.25V23.4319V28.5044V29.2544H10H10.9408V30.1952V30.9452H11.6908H12.6316V31.886V32.636H13.3816H18.4541H19.2041V31.886V30.9452H20.1449H20.8949V30.1952V29.2544H21.8357H22.5857V28.5044V23.4319V22.6819H21.8357H20.8949V21.7411V20.9911H20.1449H19.2041V20.0502ZM19.3949 24.1819V27.7544H18.4541H17.7041V28.5044V29.4452H14.1316V28.5044V27.7544H13.3816H12.4408V24.1819H13.3816H14.1316V23.4319V22.4911H17.7041V23.4319V24.1819H18.4541H19.3949Z" stroke="#11FFD4" stroke-width="1.5"/>
</g>
<defs>
<filter id="filter0_d_164_74" x="130.355" y="7.16859" width="29.1449" height="34.2174" filterUnits="userSpaceOnUse" color-interpolation-filters="sRGB">
<feFlood flood-opacity="0" result="BackgroundImageFix"/>
<feColorMatrix in="SourceAlpha" type="matrix" values="0 0 0 0 0 0 0 0 0 0 0 0 0 0 0 0 0 0 127 0" result="hardAlpha"/>
<feOffset/>
<feGaussianBlur stdDeviation="4"/>
<feComposite in2="hardAlpha" operator="out"/>
<feColorMatrix type="matrix" values="0 0 0 0 0.06486 0 0 0 0 1 0 0 0 0 0.831675 0 0 0 1 0"/>
<feBlend mode="normal" in2="BackgroundImageFix" result="effect1_dropShadow_164_74"/>
<feBlend mode="normal" in="SourceGraphic" in2="effect1_dropShadow_164_74" result="shape"/>
</filter>
<filter id="filter1_d_164_74" x="110.403" y="8.85941" width="39.2899" height="30.8358" filterUnits="userSpaceOnUse" color-interpolation-filters="sRGB">
<feFlood flood-opacity="0" result="BackgroundImageFix"/>
<feColorMatrix in="SourceAlpha" type="matrix" values="0 0 0 0 0 0 0 0 0 0 0 0 0 0 0 0 0 0 127 0" result="hardAlpha"/>
<feOffset/>
<feGaussianBlur stdDeviation="4"/>
<feComposite in2="hardAlpha" operator="out"/>
<feColorMatrix type="matrix" values="0 0 0 0 0.06486 0 0 0 0 1 0 0 0 0 0.831675 0 0 0 1 0"/>
<feBlend mode="normal" in2="BackgroundImageFix" result="effect1_dropShadow_164_74"/>
<feBlend mode="normal" in="SourceGraphic" in2="effect1_dropShadow_164_74" result="shape"/>
</filter>
<filter id="filter2_d_164_74" x="94.8478" y="3.78694" width="30.8358" height="40.9807" filterUnits="userSpaceOnUse" color-interpolation-filters="sRGB">
<feFlood flood-opacity="0" result="BackgroundImageFix"/>
<feColorMatrix in="SourceAlpha" type="matrix" values="0 0 0 0 0 0 0 0 0 0 0 0 0 0 0 0 0 0 127 0" result="hardAlpha"/>
<feOffset/>
<feGaussianBlur stdDeviation="4"/>
<feComposite in2="hardAlpha" operator="out"/>
<feColorMatrix type="matrix" values="0 0 0 0 0.06486 0 0 0 0 1 0 0 0 0 0.831675 0 0 0 1 0"/>
<feBlend mode="normal" in2="BackgroundImageFix" result="effect1_dropShadow_164_74"/>
<feBlend mode="normal" in="SourceGraphic" in2="effect1_dropShadow_164_74" result="shape"/>
</filter>
<filter id="filter3_d_164_74" x="70.0015" y="0.5" width="44.1169" height="41.4599" filterUnits="userSpaceOnUse" color-interpolation-filters="sRGB">
<feFlood flood-opacity="0" result="BackgroundImageFix"/>
<feColorMatrix in="SourceAlpha" type="matrix" values="0 0 0 0 0 0 0 0 0 0 0 0 0 0 0 0 0 0 127 0" result="hardAlpha"/>
<feOffset/>
<feGaussianBlur stdDeviation="4"/>
<feComposite in2="hardAlpha" operator="out"/>
<feColorMatrix type="matrix" values="0 0 0 0 0.06486 0 0 0 0 1 0 0 0 0 0.831675 0 0 0 1 0"/>
<feBlend mode="normal" in2="BackgroundImageFix" result="effect1_dropShadow_164_74"/>
<feBlend mode="normal" in="SourceGraphic" in2="effect1_dropShadow_164_74" result="shape"/>
</filter>
<filter id="filter4_d_164_74" x="46.4904" y="5.4778" width="42.6715" height="37.599" filterUnits="userSpaceOnUse" color-interpolation-filters="sRGB">
<feFlood flood-opacity="0" result="BackgroundImageFix"/>
<feColorMatrix in="SourceAlpha" type="matrix" values="0 0 0 0 0 0 0 0 0 0 0 0 0 0 0 0 0 0 127 0" result="hardAlpha"/>
<feOffset/>
<feGaussianBlur stdDeviation="4"/>
<feComposite in2="hardAlpha" operator="out"/>
<feColorMatrix type="matrix" values="0 0 0 0 0.06486 0 0 0 0 1 0 0 0 0 0.831675 0 0 0 1 0"/>
<feBlend mode="normal" in2="BackgroundImageFix" result="effect1_dropShadow_164_74"/>
<feBlend mode="normal" in="SourceGraphic" in2="effect1_dropShadow_164_74" result="shape"/>
</filter>
<filter id="filter5_d_164_74" x="22.1425" y="3.78694" width="40.9807" height="40.9807" filterUnits="userSpaceOnUse" color-interpolation-filters="sRGB">
<feFlood flood-opacity="0" result="BackgroundImageFix"/>
<feColorMatrix in="SourceAlpha" type="matrix" values="0 0 0 0 0 0 0 0 0 0 0 0 0 0 0 0 0 0 127 0" result="hardAlpha"/>
<feOffset/>
<feGaussianBlur stdDeviation="4"/>
<feComposite in2="hardAlpha" operator="out"/>
<feColorMatrix type="matrix" values="0 0 0 0 0.06486 0 0 0 0 1 0 0 0 0 0.831675 0 0 0 1 0"/>
<feBlend mode="normal" in2="BackgroundImageFix" result="effect1_dropShadow_164_74"/>
<feBlend mode="normal" in="SourceGraphic" in2="effect1_dropShadow_164_74" result="shape"/>
</filter>
<filter id="filter6_d_164_74" x="11.3213" y="7.16859" width="29.1449" height="34.2174" filterUnits="userSpaceOnUse" color-interpolation-filters="sRGB">
<feFlood flood-opacity="0" result="BackgroundImageFix"/>
<feColorMatrix in="SourceAlpha" type="matrix" values="0 0 0 0 0 0 0 0 0 0 0 0 0 0 0 0 0 0 127 0" result="hardAlpha"/>
<feOffset/>
<feGaussianBlur stdDeviation="4"/>
<feComposite in2="hardAlpha" operator="out"/>
<feColorMatrix type="matrix" values="0 0 0 0 0.06486 0 0 0 0 1 0 0 0 0 0.831675 0 0 0 1 0"/>
<feBlend mode="normal" in2="BackgroundImageFix" result="effect1_dropShadow_164_74"/>
<feBlend mode="normal" in="SourceGraphic" in2="effect1_dropShadow_164_74" result="shape"/>
</filter>
<filter id="filter7_d_164_74" x="0.5" y="10.5502" width="30.8358" height="30.8358" filterUnits="userSpaceOnUse" color-interpolation-filters="sRGB">
<feFlood flood-opacity="0" result="BackgroundImageFix"/>
<feColorMatrix in="SourceAlpha" type="matrix" values="0 0 0 0 0 0 0 0 0 0 0 0 0 0 0 0 0 0 127 0" result="hardAlpha"/>
<feOffset/>
<feGaussianBlur stdDeviation="4"/>
<feComposite in2="hardAlpha" operator="out"/>
<feColorMatrix type="matrix" values="0 0 0 0 0.06486 0 0 0 0 1 0 0 0 0 0.831675 0 0 0 1 0"/>
<feBlend mode="normal" in2="BackgroundImageFix" result="effect1_dropShadow_164_74"/>
<feBlend mode="normal" in="SourceGraphic" in2="effect1_dropShadow_164_74" result="shape"/>
</filter>
</defs>
</svg>
