<svg width="116" height="49" viewBox="0 0 116 49" fill="none" xmlns="http://www.w3.org/2000/svg">
<g filter="url(#filter0_d_113_1040)">
<rect x="5" y="4.5" width="106" height="40" rx="11.5" stroke="#11FFD4" shape-rendering="crispEdges"/>
<path d="M14.5 24V22.4H16.1V20.8H17.7V19.2H16.1V17.6H27.3V19.2H25.7V20.8H27.3V22.4H28.9V24H14.5ZM24.1 20.8V19.2H19.3V20.8H24.1ZM27.3 30.4V32H16.1V28.8H19.3V30.4H27.3ZM27.3 28.8H19.3V27.2H16.1V25.6H27.3V28.8ZM30.5 30.4V22.4H36.9V19.2H30.5V17.6H38.5V24H32.1V28.8H38.5V30.4H30.5ZM43.3 32H41.7V17.6H43.3V32ZM65.7063 30.4V32H54.5063V27.2H56.1063V30.4H65.7063ZM52.9062 25.6V17.6H60.9062V25.6H52.9062ZM65.7063 27.2H64.1063V17.6H65.7063V20.8H67.3063V22.4H65.7063V27.2ZM54.5063 24H59.3063V19.2H54.5063V24ZM81.7063 30.4V32H70.5063V28.8H73.7063V30.4H81.7063ZM81.7063 28.8H73.7063V27.2H70.5063V25.6H81.7063V28.8ZM68.9062 24V22.4H70.5063V17.6H81.7063V19.2H72.1063V20.8H81.7063V22.4H83.3063V24H68.9062ZM84.9062 30.4V28.8H88.1063V30.4H84.9062ZM97.7063 32H96.1063V17.6H97.7063V32ZM84.9062 19.2V17.6H92.9062V24H91.3063V19.2H84.9062ZM88.1063 28.8V27.2H89.7063V28.8H88.1063ZM89.7063 24H91.3063V27.2H89.7063V24Z" fill="#11FFD4"/>
</g>
<defs>
<filter id="filter0_d_113_1040" x="0.5" y="0" width="115" height="49" filterUnits="userSpaceOnUse" color-interpolation-filters="sRGB">
<feFlood flood-opacity="0" result="BackgroundImageFix"/>
<feColorMatrix in="SourceAlpha" type="matrix" values="0 0 0 0 0 0 0 0 0 0 0 0 0 0 0 0 0 0 127 0" result="hardAlpha"/>
<feOffset/>
<feGaussianBlur stdDeviation="2"/>
<feComposite in2="hardAlpha" operator="out"/>
<feColorMatrix type="matrix" values="0 0 0 0 0.0666667 0 0 0 0 1 0 0 0 0 0.831373 0 0 0 1 0"/>
<feBlend mode="normal" in2="BackgroundImageFix" result="effect1_dropShadow_113_1040"/>
<feBlend mode="normal" in="SourceGraphic" in2="effect1_dropShadow_113_1040" result="shape"/>
</filter>
</defs>
</svg>
