<svg width="49" height="48" viewBox="0 0 49 48" fill="none" xmlns="http://www.w3.org/2000/svg">
<mask id="mask0_132_535" style="mask-type:alpha" maskUnits="userSpaceOnUse" x="0" y="0" width="49" height="48">
<rect x="0.5" width="48" height="48" fill="#D9D9D9"/>
</mask>
<g mask="url(#mask0_132_535)">
<g filter="url(#filter0_d_132_535)">
<path fill-rule="evenodd" clip-rule="evenodd" d="M16.7 42.425C19.1333 43.475 21.7333 44 24.5 44C27.2667 44 29.8667 43.475 32.3 42.425C34.7333 41.375 36.85 39.95 38.65 38.15C40.45 36.35 41.875 34.2333 42.925 31.8C43.975 29.3667 44.5 26.7667 44.5 24C44.5 21.2333 43.975 18.6333 42.925 16.2C41.875 13.7667 40.45 11.65 38.65 9.85C36.85 8.05 34.7333 6.625 32.3 5.575C29.8667 4.525 27.2667 4 24.5 4C21.7333 4 19.1333 4.525 16.7 5.575C14.2667 6.625 12.15 8.05 10.35 9.85C8.55 11.65 7.125 13.7667 6.075 16.2C5.025 18.6333 4.5 21.2333 4.5 24C4.5 26.7667 5.025 29.3667 6.075 31.8C7.125 34.2333 8.55 36.35 10.35 38.15C12.15 39.95 14.2667 41.375 16.7 42.425ZM35.85 35.35C32.75 38.45 28.9667 40 24.5 40C20.0333 40 16.25 38.45 13.15 35.35C10.05 32.25 8.5 28.4667 8.5 24C8.5 19.5333 10.05 15.75 13.15 12.65C16.25 9.55 20.0333 8 24.5 8C28.9667 8 32.75 9.55 35.85 12.65C38.95 15.75 40.5 19.5333 40.5 24C40.5 28.4667 38.95 32.25 35.85 35.35Z" fill="#11FFD4"/>
<path d="M19.5 33L26.5 28.5L33.5 24L19.5 15V33Z" fill="#FF00B8"/>
</g>
</g>
<defs>
<filter id="filter0_d_132_535" x="-1.5" y="-2" width="52" height="52" filterUnits="userSpaceOnUse" color-interpolation-filters="sRGB">
<feFlood flood-opacity="0" result="BackgroundImageFix"/>
<feColorMatrix in="SourceAlpha" type="matrix" values="0 0 0 0 0 0 0 0 0 0 0 0 0 0 0 0 0 0 127 0" result="hardAlpha"/>
<feOffset/>
<feGaussianBlur stdDeviation="3"/>
<feComposite in2="hardAlpha" operator="out"/>
<feColorMatrix type="matrix" values="0 0 0 0 0.06486 0 0 0 0 1 0 0 0 0 0.831675 0 0 0 0.5 0"/>
<feBlend mode="normal" in2="BackgroundImageFix" result="effect1_dropShadow_132_535"/>
<feBlend mode="normal" in="SourceGraphic" in2="effect1_dropShadow_132_535" result="shape"/>
</filter>
</defs>
</svg>
