<svg width="16" height="16" viewBox="0 0 16 16" fill="none" xmlns="http://www.w3.org/2000/svg">
<mask id="mask0_113_916" style="mask-type:alpha" maskUnits="userSpaceOnUse" x="0" y="0" width="16" height="16">
<rect width="16" height="16" fill="#D9D9D9"/>
</mask>
<g mask="url(#mask0_113_916)">
<path d="M12 14H4.66671V5.33332L9.33337 0.666656L10.1667 1.49999C10.2445 1.57777 10.3084 1.68332 10.3584 1.81666C10.4084 1.94999 10.4334 2.07777 10.4334 2.19999V2.43332L9.70004 5.33332H14C14.3556 5.33332 14.6667 5.46666 14.9334 5.73332C15.2 5.99999 15.3334 6.3111 15.3334 6.66666V7.99999C15.3334 8.07777 15.3223 8.1611 15.3 8.24999C15.2778 8.33888 15.2556 8.42221 15.2334 8.49999L13.2334 13.2C13.1334 13.4222 12.9667 13.6111 12.7334 13.7667C12.5 13.9222 12.2556 14 12 14ZM6.00004 12.6667H12L14 7.99999V6.66666H8.00004L8.90004 2.99999L6.00004 5.89999V12.6667ZM4.66671 5.33332V6.66666H2.66671V12.6667H4.66671V14H1.33337V5.33332H4.66671Z" fill="white"/>
</g>
</svg>
