<svg width="128" height="128" viewBox="0 0 128 128" fill="none" xmlns="http://www.w3.org/2000/svg">
<g clip-path="url(#clip0_332_429)">
<rect width="128" height="128" fill="#222222"/>
<g filter="url(#filter0_d_332_429)">
<path d="M114.541 82.0941V71.2203H119.978V95.6864H114.541V84.8126H109.104V95.6864H103.667V71.2203H109.104V82.0941H114.541Z" fill="#FF00B8"/>
<path d="M114.541 69.7203H113.041V71.2203V80.5941H110.604V71.2203V69.7203H109.104H103.667H102.167V71.2203V95.6864V97.1864H103.667H109.104H110.604V95.6864V86.3126H113.041V95.6864V97.1864H114.541H119.978H121.478V95.6864V71.2203V69.7203H119.978H114.541Z" stroke="#11FFD4" stroke-width="3"/>
</g>
<g filter="url(#filter1_d_332_429)">
<path d="M74.3084 92.9677V90.2493H71.59V73.9386H104.211V76.657H77.0269V90.2493H104.211V92.9677H74.3084Z" fill="#FF00B8"/>
<path d="M72.8084 92.9677V94.4677H74.3084H104.211H105.711V92.9677V90.2493V88.7493H104.211H78.5269V78.157H104.211H105.711V76.657V73.9386V72.4386H104.211H71.59H70.09V73.9386V90.2493V91.7493H71.59H72.8084V92.9677Z" stroke="#11FFD4" stroke-width="3"/>
</g>
<g filter="url(#filter2_d_332_429)">
<path d="M52.0171 84.8125H46.5802V82.094H52.0171V65.7833H57.454V101.123H52.0171V84.8125ZM60.1724 65.7833H65.6093V101.123H60.1724V65.7833Z" fill="#FF00B8"/>
<path d="M45.0802 84.8125V86.3125H46.5802H50.5171V101.123V102.623H52.0171H57.454H58.6724H58.954H60.1724H65.6093H67.1093V101.123V65.7833V64.2833H65.6093H60.1724H58.954H58.6724H57.454H52.0171H50.5171V65.7833V80.594H46.5802H45.0802V82.094V84.8125Z" stroke="#11FFD4" stroke-width="3"/>
</g>
<g filter="url(#filter3_d_332_429)">
<path d="M39.273 65.3701C39.273 66.9794 40.5779 68.2408 42.1437 68.2408C43.7095 68.2408 45.0144 66.9794 45.0144 65.3701C45.0144 63.8043 43.7095 62.4994 42.1437 62.4994C40.5779 62.4994 39.273 63.8043 39.273 65.3701ZM37.2722 65.3701C37.2722 62.6734 39.447 60.4987 42.1437 60.4987C44.8404 60.4987 47.0152 62.6734 47.0152 65.3701C47.0152 68.0668 44.8404 70.2416 42.1437 70.2416C39.447 70.2416 37.2722 68.0668 37.2722 65.3701ZM14.6983 82.6377C16.612 78.1142 18.3953 71.5029 19.0043 66.501L22.8753 67.2839C22.5709 68.2408 22.2664 69.5456 22.0489 70.459C21.4835 73.1557 19.9612 79.593 18.1344 84.073C16.5251 88.0311 14.1328 92.5111 11.6971 96.0342L8 94.4684C10.7402 90.8148 13.2194 86.2478 14.6983 82.6377ZM36.1414 80.9849C34.4016 76.5049 31.7049 70.459 29.8346 67.1969L33.3577 66.0225C35.054 69.1977 37.8377 75.2 39.708 79.767C41.4478 84.073 43.753 90.7278 44.9274 94.6858L41.0563 95.9037C39.9689 91.5107 37.9247 85.5954 36.1414 80.9849Z" fill="#FF00B8"/>
<path d="M27.6219 66.3533L29.3602 65.7739L32.8833 64.5995L34.0842 64.1992L34.6807 65.3157C36.4067 68.5465 39.2116 74.597 41.0961 79.1985L41.0988 79.2051C42.8569 83.5565 45.1778 90.2565 46.3654 94.2592L46.7852 95.6739L45.3775 96.1167L41.5065 97.3346L39.9838 97.8136L39.6003 96.2641C38.5351 91.961 36.5169 86.114 34.7431 81.5279L27.6219 66.3533ZM27.6219 66.3533L28.5333 67.943M27.6219 66.3533L28.5333 67.943M28.5333 67.943C30.3491 71.1101 33.0139 77.0753 34.7424 81.526L28.5333 67.943ZM13.3168 82.0532L13.3135 82.0611L13.3102 82.0691C11.8751 85.5724 9.45671 90.0261 6.8 93.5684L5.6498 95.102L7.41501 95.8496L11.1121 97.4154L12.2365 97.8916L12.9309 96.8872C15.4318 93.2698 17.8752 88.6928 19.5237 84.6386C21.3999 80.0372 22.9411 73.5094 23.5128 70.7868C23.5252 70.7347 23.5378 70.6818 23.5506 70.628C23.7675 69.7157 24.039 68.574 24.3047 67.7387L24.8118 66.1452L23.1727 65.8137L19.3016 65.0308L17.7113 64.7091L17.5153 66.3197C16.9234 71.1812 15.1768 77.6569 13.3168 82.0532ZM42.1437 66.7408C41.3915 66.7408 40.773 66.1362 40.773 65.3701C40.773 64.6327 41.4063 63.9994 42.1437 63.9994C42.8811 63.9994 43.5144 64.6327 43.5144 65.3701C43.5144 66.1362 42.896 66.7408 42.1437 66.7408ZM42.1437 58.9987C38.6186 58.9987 35.7722 61.845 35.7722 65.3701C35.7722 68.8952 38.6186 71.7416 42.1437 71.7416C45.6688 71.7416 48.5152 68.8952 48.5152 65.3701C48.5152 61.845 45.6688 58.9987 42.1437 58.9987Z" stroke="#11FFD4" stroke-width="3"/>
</g>
<g filter="url(#filter4_d_332_429)">
<path d="M87.3787 45.0291V42.3106H84.6602V34.1553H87.3787V31.4368H90.0971V28.7184H111.845V31.4368H114.563V34.1553H117.282V42.3106H114.563V45.0291H111.845V47.7475H103.689V55.9029H120V58.6213H81.9418V55.9029H98.2525V47.7475H90.0971V45.0291H87.3787ZM90.0971 34.1553V42.3106H92.8156V45.0291H109.126V42.3106H111.845V34.1553H109.126V31.4368H92.8156V34.1553H90.0971Z" fill="#FF00B8"/>
<path d="M85.8787 45.0291V46.5291H87.3787H88.5971V47.7475V49.2475H90.0971H96.7525V54.4029H81.9418H80.4418V55.9029V58.6213V60.1213H81.9418H120H121.5V58.6213V55.9029V54.4029H120H105.189V49.2475H111.845H113.345V47.7475V46.5291H114.563H116.063V45.0291V43.8106H117.282H118.782V42.3106V34.1553V32.6553H117.282H116.063V31.4368V29.9368H114.563H113.345V28.7184V27.2184H111.845H90.0971H88.5971V28.7184V29.9368H87.3787H85.8787V31.4368V32.6553H84.6602H83.1602V34.1553V42.3106V43.8106H84.6602H85.8787V45.0291ZM94.3156 42.3106V40.8106H92.8156H91.5971V35.6553H92.8156H94.3156V34.1553V32.9368H107.626V34.1553V35.6553H109.126H110.345V40.8106H109.126H107.626V42.3106V43.5291H94.3156V42.3106Z" stroke="#11FFD4" stroke-width="3"/>
</g>
<g filter="url(#filter5_d_332_429)">
<path d="M61.8253 42.3107H56.3884V45.0291H50.9515V42.3107H48.233V45.0291H42.7961V42.3107H45.5146V39.5922H48.233V28.7184H42.7961V26H67.2622V28.7184H61.8253V39.5922H64.5437V42.3107H67.2622V45.0291H61.8253V42.3107ZM78.136 45.0291H72.6991V36.8738H64.5437V34.1553H72.6991V26H78.136V45.0291ZM56.3884 28.7184H53.6699V39.5922H56.3884V28.7184ZM78.136 58.6214H75.4175V61.3398H48.233V58.6214H45.5146V47.7476H78.136V58.6214ZM72.6991 50.466H50.9515V58.6214H72.6991V50.466Z" fill="#FF00B8"/>
<path d="M60.3253 46.2476H57.8884V45.0291V43.8107H60.3253V45.0291V46.2476ZM67.2622 40.8107H66.0437V39.5922V38.3738H71.1991V45.0291V46.2476H68.7622V45.0291V42.3107V40.8107H67.2622ZM64.5437 32.6553H63.3253V30.2184H67.2622H68.7622V28.7184V26V24.5H67.2622H42.7961H41.2961V26V28.7184V30.2184H42.7961H46.733V38.0922H45.5146H44.0146V39.5922V40.8107H42.7961H41.2961V42.3107V45.0291V46.5291H42.7961H44.0146V47.7476V58.6214V60.1214H45.5146H46.733V61.3398V62.8398H48.233H75.4175H76.9175V61.3398V60.1214H78.136H79.636V58.6214V47.7476V46.5291V46.2476V45.0291V26V24.5H78.136H72.6991H71.1991V26V32.6553H64.5437ZM52.4515 57.1214V51.966H71.1991V57.1214H52.4515Z" stroke="#11FFD4" stroke-width="3"/>
</g>
<g filter="url(#filter6_d_332_429)">
<path d="M41.7089 53.1845V55.9029H25.3982V53.1845H30.8351V34.1553H25.3982V31.4369H36.272V53.1845H41.7089Z" fill="#FF00B8"/>
<path d="M43.2089 53.1845V51.6845H41.7089H37.772V31.4369V29.9369H36.272H25.3982H23.8982V31.4369V34.1553V35.6553H25.3982H29.3351V51.6845H25.3982H23.8982V53.1845V55.9029V57.4029H25.3982H41.7089H43.2089V55.9029V53.1845Z" stroke="#11FFD4" stroke-width="3"/>
</g>
<g filter="url(#filter7_d_332_429)">
<path d="M21.5922 36.8739V39.5923H13.4369V36.8739H21.5922ZM13.4369 39.5923V42.3108H10.7184V39.5923H13.4369ZM24.3107 42.3108H21.5922V39.5923H24.3107V42.3108ZM8 42.3108H10.7184V50.4661H8V42.3108ZM24.3107 42.3108H27.0291V50.4661H24.3107V42.3108ZM10.7184 50.4661H13.4369V53.1846H10.7184V50.4661ZM21.5922 53.1846V50.4661H24.3107V53.1846H21.5922ZM13.4369 55.903V53.1846H21.5922V55.903H13.4369Z" fill="#FF00B8"/>
<path d="M23.0922 36.8739V35.3739H21.5922H13.4369H11.9369V36.8739V38.0923H10.7184H9.21845V39.5923V40.8108H8H6.5V42.3108V50.4661V51.9661H8H9.21845V53.1846V54.6846H10.7184H11.9369V55.903V57.403H13.4369H21.5922H23.0922V55.903V54.6846H24.3107H25.8107V53.1846V51.9661H27.0291H28.5291V50.4661V42.3108V40.8108H27.0291H25.8107V39.5923V38.0923H24.3107H23.0922V36.8739ZM13.4369 43.8108H14.9369V42.3108V41.0923H20.0922V42.3108V43.8108H21.5922H22.8107V48.9661H21.5922H20.0922V50.4661V51.6846H14.9369V50.4661V48.9661H13.4369H12.2184V43.8108H13.4369Z" stroke="#11FFD4" stroke-width="3"/>
</g>
</g>
<defs>
<filter id="filter0_d_332_429" x="76.6675" y="44.2203" width="70.3107" height="78.4661" filterUnits="userSpaceOnUse" color-interpolation-filters="sRGB">
<feFlood flood-opacity="0" result="BackgroundImageFix"/>
<feColorMatrix in="SourceAlpha" type="matrix" values="0 0 0 0 0 0 0 0 0 0 0 0 0 0 0 0 0 0 127 0" result="hardAlpha"/>
<feOffset/>
<feGaussianBlur stdDeviation="12"/>
<feComposite in2="hardAlpha" operator="out"/>
<feColorMatrix type="matrix" values="0 0 0 0 0.06486 0 0 0 0 1 0 0 0 0 0.831675 0 0 0 1 0"/>
<feBlend mode="normal" in2="BackgroundImageFix" result="effect1_dropShadow_332_429"/>
<feBlend mode="normal" in="SourceGraphic" in2="effect1_dropShadow_332_429" result="shape"/>
</filter>
<filter id="filter1_d_332_429" x="44.59" y="46.9386" width="86.6213" height="73.0292" filterUnits="userSpaceOnUse" color-interpolation-filters="sRGB">
<feFlood flood-opacity="0" result="BackgroundImageFix"/>
<feColorMatrix in="SourceAlpha" type="matrix" values="0 0 0 0 0 0 0 0 0 0 0 0 0 0 0 0 0 0 127 0" result="hardAlpha"/>
<feOffset/>
<feGaussianBlur stdDeviation="12"/>
<feComposite in2="hardAlpha" operator="out"/>
<feColorMatrix type="matrix" values="0 0 0 0 0.06486 0 0 0 0 1 0 0 0 0 0.831675 0 0 0 1 0"/>
<feBlend mode="normal" in2="BackgroundImageFix" result="effect1_dropShadow_332_429"/>
<feBlend mode="normal" in="SourceGraphic" in2="effect1_dropShadow_332_429" result="shape"/>
</filter>
<filter id="filter2_d_332_429" x="19.5802" y="38.7833" width="73.0292" height="89.3398" filterUnits="userSpaceOnUse" color-interpolation-filters="sRGB">
<feFlood flood-opacity="0" result="BackgroundImageFix"/>
<feColorMatrix in="SourceAlpha" type="matrix" values="0 0 0 0 0 0 0 0 0 0 0 0 0 0 0 0 0 0 127 0" result="hardAlpha"/>
<feOffset/>
<feGaussianBlur stdDeviation="12"/>
<feComposite in2="hardAlpha" operator="out"/>
<feColorMatrix type="matrix" values="0 0 0 0 0.06486 0 0 0 0 1 0 0 0 0 0.831675 0 0 0 1 0"/>
<feBlend mode="normal" in2="BackgroundImageFix" result="effect1_dropShadow_332_429"/>
<feBlend mode="normal" in="SourceGraphic" in2="effect1_dropShadow_332_429" result="shape"/>
</filter>
<filter id="filter3_d_332_429" x="-20.7004" y="33.4987" width="94.7156" height="90.2505" filterUnits="userSpaceOnUse" color-interpolation-filters="sRGB">
<feFlood flood-opacity="0" result="BackgroundImageFix"/>
<feColorMatrix in="SourceAlpha" type="matrix" values="0 0 0 0 0 0 0 0 0 0 0 0 0 0 0 0 0 0 127 0" result="hardAlpha"/>
<feOffset/>
<feGaussianBlur stdDeviation="12"/>
<feComposite in2="hardAlpha" operator="out"/>
<feColorMatrix type="matrix" values="0 0 0 0 0.06486 0 0 0 0 1 0 0 0 0 0.831675 0 0 0 1 0"/>
<feBlend mode="normal" in2="BackgroundImageFix" result="effect1_dropShadow_332_429"/>
<feBlend mode="normal" in="SourceGraphic" in2="effect1_dropShadow_332_429" result="shape"/>
</filter>
<filter id="filter4_d_332_429" x="54.9418" y="1.71838" width="92.0582" height="83.903" filterUnits="userSpaceOnUse" color-interpolation-filters="sRGB">
<feFlood flood-opacity="0" result="BackgroundImageFix"/>
<feColorMatrix in="SourceAlpha" type="matrix" values="0 0 0 0 0 0 0 0 0 0 0 0 0 0 0 0 0 0 127 0" result="hardAlpha"/>
<feOffset/>
<feGaussianBlur stdDeviation="12"/>
<feComposite in2="hardAlpha" operator="out"/>
<feColorMatrix type="matrix" values="0 0 0 0 0.06486 0 0 0 0 1 0 0 0 0 0.831675 0 0 0 1 0"/>
<feBlend mode="normal" in2="BackgroundImageFix" result="effect1_dropShadow_332_429"/>
<feBlend mode="normal" in="SourceGraphic" in2="effect1_dropShadow_332_429" result="shape"/>
</filter>
<filter id="filter5_d_332_429" x="15.7961" y="-1" width="89.3398" height="89.3398" filterUnits="userSpaceOnUse" color-interpolation-filters="sRGB">
<feFlood flood-opacity="0" result="BackgroundImageFix"/>
<feColorMatrix in="SourceAlpha" type="matrix" values="0 0 0 0 0 0 0 0 0 0 0 0 0 0 0 0 0 0 127 0" result="hardAlpha"/>
<feOffset/>
<feGaussianBlur stdDeviation="12"/>
<feComposite in2="hardAlpha" operator="out"/>
<feColorMatrix type="matrix" values="0 0 0 0 0.06486 0 0 0 0 1 0 0 0 0 0.831675 0 0 0 1 0"/>
<feBlend mode="normal" in2="BackgroundImageFix" result="effect1_dropShadow_332_429"/>
<feBlend mode="normal" in="SourceGraphic" in2="effect1_dropShadow_332_429" result="shape"/>
</filter>
<filter id="filter6_d_332_429" x="-1.60181" y="4.43689" width="70.3107" height="78.4661" filterUnits="userSpaceOnUse" color-interpolation-filters="sRGB">
<feFlood flood-opacity="0" result="BackgroundImageFix"/>
<feColorMatrix in="SourceAlpha" type="matrix" values="0 0 0 0 0 0 0 0 0 0 0 0 0 0 0 0 0 0 127 0" result="hardAlpha"/>
<feOffset/>
<feGaussianBlur stdDeviation="12"/>
<feComposite in2="hardAlpha" operator="out"/>
<feColorMatrix type="matrix" values="0 0 0 0 0.06486 0 0 0 0 1 0 0 0 0 0.831675 0 0 0 1 0"/>
<feBlend mode="normal" in2="BackgroundImageFix" result="effect1_dropShadow_332_429"/>
<feBlend mode="normal" in="SourceGraphic" in2="effect1_dropShadow_332_429" result="shape"/>
</filter>
<filter id="filter7_d_332_429" x="-19" y="9.8739" width="73.0292" height="73.0292" filterUnits="userSpaceOnUse" color-interpolation-filters="sRGB">
<feFlood flood-opacity="0" result="BackgroundImageFix"/>
<feColorMatrix in="SourceAlpha" type="matrix" values="0 0 0 0 0 0 0 0 0 0 0 0 0 0 0 0 0 0 127 0" result="hardAlpha"/>
<feOffset/>
<feGaussianBlur stdDeviation="12"/>
<feComposite in2="hardAlpha" operator="out"/>
<feColorMatrix type="matrix" values="0 0 0 0 0.06486 0 0 0 0 1 0 0 0 0 0.831675 0 0 0 1 0"/>
<feBlend mode="normal" in2="BackgroundImageFix" result="effect1_dropShadow_332_429"/>
<feBlend mode="normal" in="SourceGraphic" in2="effect1_dropShadow_332_429" result="shape"/>
</filter>
<clipPath id="clip0_332_429">
<rect width="128" height="128" fill="white"/>
</clipPath>
</defs>
</svg>
